<?xml version="1.0" encoding="utf-8"?>
<!-- Generator: Adobe Illustrator 23.0.1, SVG Export Plug-In . SVG Version: 6.00 Build 0)  -->
<svg version="1.1" xmlns="http://www.w3.org/2000/svg" xmlns:xlink="http://www.w3.org/1999/xlink" x="0px" y="0px"
	 viewBox="0 0 1217.7 753.1" style="enable-background:new 0 0 1217.7 753.1;" xml:space="preserve">
<style type="text/css">
	.st0{fill:#FFFFFF;}
	.st1{fill-rule:evenodd;clip-rule:evenodd;}
	.st2{fill:#004C83;}
	.st3{fill-rule:evenodd;clip-rule:evenodd;fill:#004C83;}
	.st4{fill-rule:evenodd;clip-rule:evenodd;fill:#FFFFFF;}
	.st5{fill:none;}
	.st6{font-family:'Algerian';}
	.st7{font-size:90px;}
	.st8{font-family:'Consolas';}
	.st9{font-size:36px;}
</style>
<g id="Guides_For_Artboard">
</g>
<g id="Layer_1">
	<path class="st0" d="M1218.1,616.6c-1.4-0.7-2.5-2.1-2.5-4.2V439.1c-0.7-0.8-1.2-1.9-1.2-3.3v-81.5c0-1.4,0.5-2.5,1.2-3.3v-11.5
		c0-1.4,0.5-2.5,1.2-3.3V223.5c0-2.2,1.2-3.7,2.8-4.4c-0.2-0.5-0.3-1.1-0.3-1.8v-13.6c0-5.8-0.3-12,0-18v-37.4h-1.2
		c-2.8,0-4.9-2.3-5-5c-0.1-2.1,1.4-3.9,3.3-4.7c-1.1-1.5-1-3.3-0.3-4.7c0.5-1.4,1.6-2.5,3.2-2.9V77.6c-2.7,2.5-8.5,1.3-8.6-3.6
		c-0.1-3.6,0.1-7.1,0.6-10.7c-0.6,0.6-1.3,1.3-1.9,1.9c-4.6,4.6-11.6-2.5-7.1-7.1c4.1-4.1,8.3-8.3,12.4-12.4
		c1.4-6.2,2.9-12.4,3.6-18.6c-0.3-2.4-0.5-4.7-0.6-7.1c-0.5-0.7-0.8-1.7-0.8-2.8V9.9c0-0.6,0.1-1.2,0.4-1.8c0-0.4,0-0.8,0-1.2
		c-0.1-0.2-0.1-0.4-0.2-0.7H889.7c-3.7,0-5.3-3.3-4.7-6.1c-10.6,0.5-21.1,1-31.7,1.5c-9,0.4-18,0.4-27,0.1c-0.6,1.7-2.1,3.1-4.4,3.2
		C805,6,788.3,4.2,772,0.2c-1.5,0.3-2.9,0.6-4.4,1c-1.8,0.4-3.2-0.1-4.3-1c-0.8,0.7-1.8,1.1-3.2,1.1h-1.2v7.3c0,6.4-10,6.4-10,0V1.3
		H410.5c0.6,2.8-1,6.2-4.7,6.2H213.2c-2.7,0-4.2-1.7-4.7-3.7h-89.1c-2.7,0-4.2-1.7-4.7-3.7H0.9v225.8h1.2c6.4,0,6.4,10,0,10h-2.5
		c0,0,0,0,0,0c0.9,0.8,1.5,2,1.4,3.6c-0.2,3.8-0.7,7.6-1.2,11.3V509c0.8,0.8,1.2,1.9,1.2,3.3v35.8c0,1.4-0.5,2.5-1.2,3.3v59.7
		c0,0.5-0.1,1-0.2,1.4c1.6,1.8,1.7,4.8,0.2,6.8v65.9c0,1-0.2,1.8-0.6,2.5c0.4,0.7,0.6,1.5,0.6,2.5v43.8c3.1,1.8,3,6.9,0,8.7v0.6
		c0,0.5-0.1,1-0.2,1.5c1.7,1.9,1.7,5.2-0.1,7.1h132.8c1,0,2,0,3.1,0h116.7c1.2-1.1,2.9-1.4,4.4-1.1c0.4-0.1,0.9-0.2,1.3-0.2h122.2
		c1.5,0,2.6,0.5,3.4,1.3c1.3-0.1,2.5,0.4,3.6,1.2c0.1,0,0.3,0,0.4,0h85.2c1.4,0,2.5,0.5,3.3,1.2h218.9c0.1,0,0.3,0,0.4,0
		c0.8-0.8,1.9-1.3,3.3-1.3h202.5c1.4,0,2.5,0.5,3.3,1.2h173.6c0.8-0.8,1.9-1.2,3.3-1.2h135.7v-27.1c0-1.5,0.6-2.7,1.4-3.5
		c-0.1-0.4-0.2-0.9-0.2-1.4V616.6z"/>
	<g>
		<path class="st1" d="M275.7,351.9c22.4-6.7,56.6-14,73.8-17.6c-6.9-40.1-8.6-82.4-2.4-125.9l-45.8,16.8c1-46.9,6.9-87.4,13.3-119
			c-35,14.2-72.4,32-106.6,53.7c-3.3,40.8,1.3,88.3,13.1,138.4l36.7-13.1C261.4,306.4,267.4,328.8,275.7,351.9z"/>
		<path class="st1" d="M366.4,401.5c-21.8,4-47.2,9.6-62.7,13.2c37.9,70.8,98.1,142.1,184.6,195.8
			C448.2,565.9,396,491.7,366.4,401.5z"/>
	</g>
	<g>
		<path class="st1" d="M852.6,401.5c-29.6,90.1-81.9,164.4-121.9,209c86.4-53.7,146.7-125.1,184.5-195.8
			C899.7,411.2,874.4,405.5,852.6,401.5z"/>
		<path class="st1" d="M1011,160c-34.1-21.7-71.6-39.5-106.6-53.7c6.5,31.5,12.3,72.1,13.3,119l-45.8-16.8
			c6.1,43.5,4.5,85.8-2.4,125.9c17.1,3.5,51.4,10.9,73.8,17.6c8.3-23.1,14.3-45.5,17.9-66.6l36.7,13.1
			C1009.7,248.3,1014.3,200.8,1011,160z"/>
	</g>
	<path class="st2" d="M959,569.9c28.4,10.9,77.2-47.9,109.1-131.2c31.9-83.3,34.7-159.6,6.3-170.5c-28.4-10.9-77.2,47.9-109.1,131.2
		C933.5,482.7,930.7,559.1,959,569.9z"/>
	<path class="st2" d="M1077.3,442.3c31.9-83.3,34.7-159.6,6.3-170.5l34.1,13l0,0c27.3,12.2,24.2,87.8-7.3,170.1
		c-31.9,83.3-80.7,142-109.1,131.2l-33.1-12.7C996.6,584.3,1045.4,525.6,1077.3,442.3z"/>
	<path class="st2" d="M1118.8,458.2c20.9-54.7,29.3-106.4,24.6-138.6l18.1,6.9l0,0c23.4,10.5,20.7,75.1-6.2,145.5
		c-27.3,71.3-69.1,121.5-93.4,112.3l-17.2-6.6C1069.6,557,1097.9,512.9,1118.8,458.2z"/>
	<path class="st2" d="M1215.6,439.1c-0.7-0.8-1.2-1.9-1.2-3.3v-44c-2.6-7.6-6.6-13-12.1-15.5l0,0l-15.5-5.9
		c0.6,27.4-6.8,65.4-22.1,105.3c-15.3,39.9-35.1,73.2-53.8,93.2l14.7,5.6c21.4,8.2,55.7-29.6,76.7-84.4c6.5-17.1,11-33.8,13.4-49
		V439.1z"/>
	<path class="st2" d="M258.7,569.9c-28.4,10.9-77.2-47.9-109.1-131.2c-31.9-83.3-34.7-159.6-6.3-170.5
		c28.4-10.9,77.2,47.9,109.1,131.2C284.3,482.7,287.1,559.1,258.7,569.9z"/>
	<path class="st2" d="M140.5,442.3c-31.9-83.3-34.7-159.6-6.3-170.5l-34.1,13l0,0c-27.3,12.2-24.2,87.8,7.3,170.1
		c31.9,83.3,80.7,142,109.1,131.2l33.1-12.7C221.2,584.3,172.3,525.6,140.5,442.3z"/>
	<path class="st2" d="M98.9,458.2C78,403.4,69.6,351.7,74.3,319.6l-18.1,6.9v0c-23.4,10.5-20.7,75.1,6.2,145.5
		c27.3,71.3,69.1,121.5,93.4,112.3l17.2-6.6C148.1,557,119.8,512.9,98.9,458.2z"/>
	<path class="st2" d="M53.1,475.7C37.8,435.8,30.3,397.8,31,370.4l-15.5,5.9l0,0c-20.6,9.1-20.7,59.6,0,113.7
		c21,54.8,55.3,92.6,76.7,84.4l14.7-5.6C88.1,548.9,68.3,515.6,53.1,475.7z"/>
	<path class="st2" d="M424,333.3c-81,11.2-157.5,29.8-226.3,55.1l13.6,43.8c67.6-25.1,143.3-43.3,223.7-54.2
		C429.8,361.8,426.2,345.3,424,333.3z"/>
	<path class="st2" d="M794.1,333c-3,16.1-7.4,31.4-11.8,44.6c81.6,10.8,158.4,29.2,226.8,54.7l13.6-43.8
		C953.3,362.9,876,344.2,794.1,333z"/>
	<path class="st1" d="M571.5,129.5c-28.1,12.8-70.1,16.7-78.4,42.9c-12.6,40.2-23.2,160.4-23.2,160.4s31.8,4.6,31.8,37.6
		c0,33,12.5,88.5,55.2,118.2V333.8c0,0-55.7-32.3-56.7-58.6c-1-26.3-0.7-9.3-0.7-9.3l85.6,26.7c1.4,16.8,0.7,66-8.4,81.2l28.9,17.6
		l28.9-17.6c-9.1-15.1-9.8-64.4-8.4-81.2l85.6-26.7c0,0,0.3-17-0.7,9.3c-1,26.2-57.8,58.6-57.8,58.6v154.8
		c42.6-29.6,56.2-85.2,56.2-118.2c0-33,31.3-37.6,31.3-37.6s-10-120.3-22.6-160.4c-8.2-26.3-50.3-30.1-78.4-42.9
		c-1.5,16.9-2.3,48.5-2.4,65.2l-0.1,11.8h-11.8c-13.3,0-26.6,0-39.8,0h-11.9l-0.1-11.8C573.7,178,572.9,146.4,571.5,129.5
		L571.5,129.5z"/>
	<g>
		<path class="st3" d="M554.4,49.3c-72.9,3.9-136.5,17.2-153.3,40.2l-21.9,163.8c-1.9,44.3,3.1,84.1,13,119.7l35.6-20.5
			c-7.3-30.1-10-61.2-8.7-92.8l19.2-143.8c12.9-7.7,43.4-14,53.2-15.7c24.2-4.2,49.5-6.6,74.5-7.6C564.2,82.1,560.6,66.1,554.4,49.3
			z"/>
		<path class="st3" d="M838.7,253.3L816.8,89.5c-21-22-86.8-35.4-160.3-39.9c-5.3,12.7-10,27.2-11.8,42.2c0,0.3-0.1,0.6-0.2,0.9
			c27.8,1.3,55.8,4.1,82.7,9.2c10.6,2,38.3,8,52.6,15.7l19,142.1c1.3,32.4-1.6,64.3-9.2,95.1l35.6,20.5
			C835.4,339.1,840.7,298.6,838.7,253.3z"/>
	</g>
	<path class="st1" d="M585.7,194.6c13.3,0,26.5,0,39.8,0c0,0,0.4-104.8,13.2-138.6c12.8-33.8,20.6-41.8,20.6-41.8
		c-5-1.6-10.8-2.8-17-3.8c-2.7,2.7-6.4,6.8-8.4,10.8l3.4-11.6c-4.2-0.5-8.6-1-13.1-1.3c-2.8,8-7.8,23.7-8.9,37.5
		c0,0,0.9-21.6,3.4-37.9c-8.2-0.4-16.7-0.4-25,0c3.8,10.9,8.5,29.1,8.1,52.4c0,0-2.8-30.7-15.2-52c-5.4,0.4-10.6,1-15.7,1.7
		c2.4,5.2,6.2,13.8,7.7,20.5c0,0-6.1-12.5-12-19.8c-5.3,0.9-10.3,2-14.8,3.3c0,0,7.8,8,20.6,41.8
		C585.3,89.9,585.7,194.6,585.7,194.6L585.7,194.6z"/>
	<path class="st1" d="M774.3,400.3c-0.5,1.3-1.1,2.6-1.6,3.9c-16.4,37.2-40,70.3-68.5,98.4c-25,24.6-61.9,52.7-95.2,69
		c-33.4-16.3-70.2-44.4-95.2-69c-28.5-28.1-52.1-61.1-68.5-98.4c-0.9-2.1-1.7-4.1-2.6-6.2c-17.9,2-32,4.6-39.9,6.2l-0.3,0.2
		c20.7,54.4,52.6,97.3,85.5,129.8c59.6,58.7,121.1,84,121.1,84s61.5-25.3,121-84c32.4-31.9,63.7-73.9,84.5-127.1
		C810.2,406.1,795.2,402.9,774.3,400.3z"/>
	<path class="st4" d="M284,421.6l-1.6-12.5c0,0-39.2,11.2-67.1,21.6l5.1,11.9C220.4,442.6,243.9,433.3,284,421.6z"/>
	<path class="st4" d="M935.8,421.6l1.6-12.5c0,0,39.1,11.2,67.1,21.6l-5.1,11.9C999.5,442.6,976,433.3,935.8,421.6z"/>
	<rect x="0" y="624.7" class="st5" width="1217.7" height="84"/>
	<text transform="matrix(1 0 0 1 385.1833 684.7205)" class="st6 st7">BWW Apps</text>
	<text transform="matrix(1.702 0 0 1 221.8495 737.037)" class="st8 st9">Helping you win at life</text>
</g>
</svg>
