<?xml version="1.0" encoding="utf-8"?>
<!-- Generator: Adobe Illustrator 23.0.1, SVG Export Plug-In . SVG Version: 6.00 Build 0)  -->
<svg version="1.1" id="Layer_1" xmlns="http://www.w3.org/2000/svg" xmlns:xlink="http://www.w3.org/1999/xlink" x="0px" y="0px"
	 viewBox="0 0 1220.8 754" style="enable-background:new 0 0 1220.8 754;" xml:space="preserve">
<style type="text/css">
	.st0{fill:#FFFFFF;}
	.st1{fill-rule:evenodd;clip-rule:evenodd;}
	.st2{fill:#004C83;}
	.st3{fill-rule:evenodd;clip-rule:evenodd;fill:#004C83;}
	.st4{fill-rule:evenodd;clip-rule:evenodd;fill:#FFFFFF;}
	.st5{font-family:'Algerian';}
	.st6{font-size:90px;}
	.st7{font-family:'Consolas';}
	.st8{font-size:36px;}
</style>
<g>
	<path class="st0" d="M1220.8,616.5c-3.3-0.7,0-3.2,0-3.2V440c0,0-5.6-2.9,0-2.6V356c-5.6-3.1,0-4,0-4v-11.5v-4.3V223.4
		c0,0-2-3.7-0.4-4.4c-0.2-0.5,0.4-1.8,0.4-1.8v-13.6c0,0-1-12,0-18V148l0,0c-2.5-1.6,3.6-6.7,0-8.1c-0.1-1.7-2.5-4.1-1.1-4.8
		c0.5-0.2,0.7-0.6,1-1.1c0.4-0.7,3.4-0.5,0.1-3.1c0.5-1.4-2.3,0.4,0,0V77.5c-3.4,2.5,0.1,4.9,0,0c-0.1-3.6,0.6-17,1.1-20.6
		c-0.6,0.6-0.5,11.4-1.1,12c10.6,3.8,0.1-9.1,0.1-17.1c4.1-4.1-4.2-2.8-0.1-6.9c1.2-10.3,1.2-10.3,1.2-10.3
		c-0.3-2.4-1.1-11.3-1.2-13.7c-2-12.9,0,0,0,0l-2-12.9c-0.2,5.8-1.2,6.3,0,0V6.8c-0.8-0.2-0.8-0.4,0.5-6.8H891.9
		c-5.1,6.1-6.7,2.8-6.1,0c-10.6,0.5-21.1,1-31.7,1.5c-10.3-1.8-18,0.4-27,0.1c-0.6,1.7,2.3-0.1,0,0c-14.9-4.8-37.3,2.5-54.3-1.5
		c-1.5,0.3-2.9,0.6-4.4,1c-1.8,0.4-3.2-0.1-4.3-1c-0.8,0.7-3.2,0.9-3.2,0.9h-1.1h1.1c11.9-0.9-1.1,0-11.1,0l0,0H411.3
		c0.6,3-4.1-1-4.1-1H214.8c1.8,1.4,0.9-1.3-6.7,0h-88.8c-1.7,4-3.2,2.2-3.7,0H1.8v226h1.1c-0.4-6.9-3.3,4.6-1,13.6L0.6,236l0,0
		c0.8,0.8,1.4,2,1.3,3.6c-0.2,3.8-0.6,7.6-1.1,11.3v258c0,0,1,1.9-0.8,3.3V548c1.8,1.4,1.3,2.5,0.8,3.3V611c-0.2,0.5-0.3,1-0.4,1.4
		c1.6,1.8,1.7,4.8,0.4,6.8v65.9c-0.2,1-0.4,1.8-0.8,2.5c0.4,0.7,0.6,1.5,0.8,2.5v43.8c0,0,2.8-1.8,0,0v9.3c-0.2,0.5-0.3,1-0.4,1.5
		c1.7,1.9,1.7,5.2,0.9,9.3h132.8h5.8h116.7c-2.5-3.3-0.8-3.6,0.7-3.3c0.4-0.1,1.3,3.3,1.3,3.3h122.2c0,0,6.2-1.8,7-1
		c1.3-0.1,0,0,0,0c0.1,0,0.3,0,4.4,1h85.2c-2.6-1-0.7,0-0.7,0h218.9h0.4c0.8-0.6,5.3,0,5.3,0h202.5c0,0,0.5-0.6,1.3,0h173.6
		c0.8-0.7,1.9-1.1,5.7,0.7l138.8-1l-2.4-28.9c-3.1-0.5-2.5-1.7-1.7-2.5c-0.1-0.4,1.7-1.4,1.7-1.4V616.5z"/>
	<g>
		<path class="st1" d="M276.5,351.8c22.4-6.7,56.6-14,73.8-17.6c-6.9-40.1-8.6-82.4-2.4-125.9l-45.8,16.8c1-46.9,6.9-87.4,13.3-119
			c-35,14.2-72.4,32-106.6,53.7c-3.3,40.8,1.3,88.3,13.1,138.4l36.7-13.1C262.2,306.3,268.2,328.7,276.5,351.8z"/>
		<path class="st1" d="M367.2,401.4c-21.8,4-47.2,9.6-62.7,13.2c37.9,70.8,98.1,142.1,184.6,195.8
			C449,565.8,396.8,491.6,367.2,401.4z"/>
	</g>
	<g>
		<path class="st1" d="M853.4,401.4c-29.6,90.1-81.9,164.4-121.9,209c86.4-53.7,146.7-125.1,184.5-195.8
			C900.5,411.1,875.2,405.4,853.4,401.4z"/>
		<path class="st1" d="M1011.8,159.9c-34.1-21.7-71.6-39.5-106.6-53.7c6.5,31.5,12.3,72.1,13.3,119l-45.8-16.8
			c6.1,43.5,4.5,85.8-2.4,125.9c17.1,3.5,51.4,10.9,73.8,17.6c8.3-23.1,14.3-45.5,17.9-66.6l36.7,13.1
			C1010.5,248.2,1015.1,200.7,1011.8,159.9z"/>
	</g>
	<path class="st2" d="M959.8,569.8c28.4,10.9,77.2-47.9,109.1-131.2s34.7-159.6,6.3-170.5c-28.4-10.9-77.2,47.9-109.1,131.2
		C934.3,482.6,931.5,559,959.8,569.8z"/>
	<path class="st2" d="M1078.1,442.2c31.9-83.3,34.7-159.6,6.3-170.5l34.1,13l0,0c27.3,12.2,24.2,87.8-7.3,170.1
		c-31.9,83.3-80.7,142-109.1,131.2L969,573.3C997.4,584.2,1046.2,525.5,1078.1,442.2z"/>
	<path class="st2" d="M1119.6,458.1c20.9-54.7,29.3-106.4,24.6-138.6l18.1,6.9l0,0c23.4,10.5,20.7,75.1-6.2,145.5
		c-27.3,71.3-69.1,121.5-93.4,112.3l-17.2-6.6C1070.4,556.9,1098.7,512.8,1119.6,458.1z"/>
	<path class="st2" d="M1216.4,439c-0.7-0.8-1.2-1.9-0.6-3.3v-44c-3.2-7.6-7.2-13-12.7-15.5l0,0l-15.5-5.9
		c0.6,27.4-6.8,65.4-22.1,105.3c-15.3,39.9-35.1,73.2-53.8,93.2l14.7,5.6c21.4,8.2,55.7-29.6,76.7-84.4c6.5-17.1,11-33.8,13.7-49v-2
		H1216.4z"/>
	<path class="st2" d="M259.5,569.8c-28.4,10.9-77.2-47.9-109.1-131.2s-34.7-159.6-6.3-170.5s77.2,47.9,109.1,131.2
		S287.9,559,259.5,569.8z"/>
	<path class="st2" d="M141.3,442.2c-31.9-83.3-34.7-159.6-6.3-170.5l-34.1,13l0,0c-27.3,12.2-24.2,87.8,7.3,170.1
		c31.9,83.3,80.7,142,109.1,131.2l33.1-12.7C222,584.2,173.1,525.5,141.3,442.2z"/>
	<path class="st2" d="M99.7,458.1c-20.9-54.8-29.3-106.5-24.6-138.6L57,326.4l0,0c-23.4,10.5-20.7,75.1,6.2,145.5
		c27.3,71.3,69.1,121.5,93.4,112.3l17.2-6.6C148.9,556.9,120.6,512.8,99.7,458.1z"/>
	<path class="st2" d="M53.9,475.6c-15.3-39.9-22.8-77.9-22.1-105.3l-15.5,5.9l0,0c-20.6,9.1-20.7,59.6,0,113.7
		c21,54.8,55.3,92.6,76.7,84.4l14.7-5.6C88.9,548.8,69.1,515.5,53.9,475.6z"/>
	<path class="st2" d="M424.8,333.2c-81,11.2-157.5,29.8-226.3,55.1l13.6,43.8c67.6-25.1,143.3-43.3,223.7-54.2
		C430.6,361.7,427,345.2,424.8,333.2z"/>
	<path class="st2" d="M794.9,332.9c-3,16.1-7.4,31.4-11.8,44.6c81.6,10.8,158.4,29.2,226.8,54.7l13.6-43.8
		C954.1,362.8,876.8,344.1,794.9,332.9z"/>
	<path class="st1" d="M572.6,129c-28.4,12.8-70.9,16.7-79.3,42.9c-12.8,40.2-23.5,160.4-23.5,160.4s32.2,4.6,32.2,37.6
		s12.6,88.5,55.9,118.2V333.7c0,0-55.5-32.2-56.5-58.4c-1-26.2-0.7-9.3-0.7-9.3l85.3,26.6c1.4,16.7,0.7,65.8-8.4,80.9l28.8,17.5
		l28.8-17.5c-9.1-15.1-9.8-64.2-8.4-80.9l85.3-26.6c0,0,0.3-16.9-0.7,9.3c-1,26.1-57.6,58.4-57.6,58.4v154.4
		c42.9-29.6,56.6-85.2,56.6-118.2s31.5-37.6,31.5-37.6S731.8,212,719.1,171.9c-8.3-26.3-50.6-30.1-78.9-42.9
		c-1.5,16.9-2.3,48.5-2.4,65.2l-0.1,11.8h-10.6c-13.5,0-26.9,0-40.3,0h-12l-0.1-11.8C574.8,177.5,574,145.9,572.6,129L572.6,129z"/>
	<g>
		<path class="st3" d="M555.2,49.2c-72.9,3.9-136.5,17.2-153.3,40.2L380,253.2c-1.9,44.3,3.1,84.1,13,119.7l35.6-20.5
			c-7.3-30.1-10-61.2-8.7-92.8l19.2-143.8c12.9-7.7,43.4-14,53.2-15.7c24.2-4.2,49.5-6.6,74.5-7.6C565,82,561.4,66,555.2,49.2z"/>
		<path class="st3" d="M839.5,253.2L817.6,89.4c-21-22-86.8-35.4-160.3-39.9c-5.3,12.7-10,27.2-11.8,42.2c0,0.3-0.1,0.6-0.2,0.9
			c27.8,1.3,55.8,4.1,82.7,9.2c10.6,2,38.3,8,52.6,15.7l19,142.1c1.3,32.4-1.6,64.3-9.2,95.1l35.6,20.5
			C836.2,339,841.5,298.5,839.5,253.2z"/>
	</g>
	<path class="st1" d="M586.5,195c13.3,0,26.5,0,39.8,0c0,0,0.4-104.8,13.2-138.6s20.6-41.8,20.6-41.8c-5-1.6-10.8-2.8-17-3.8
		c-2.7,2.7-6.4,6.8-8.4,10.8l3.4-11.6c-4.2-0.5-8.6-1-13.1-1.3c-2.8,8-7.8,23.7-8.9,37.5c0,0,0.9-21.6,3.4-37.9
		c-8.2-0.4-16.7-0.4-25,0c3.8,10.9,8.5,29.1,8.1,52.4c0,0-2.8-30.7-15.2-52c-5.4,0.4-10.6,1-15.7,1.7c2.4,5.2,6.2,13.8,7.7,20.5
		c0,0-6.1-12.5-12-19.8c-5.3,0.9-10.3,2-14.8,3.3c0,0,7.8,8,20.6,41.8C586.1,90.3,586.5,195,586.5,195L586.5,195z"/>
	<path class="st1" d="M775.1,400.2c-0.5,1.3-1.1,2.6-1.6,3.9c-16.4,37.2-40,70.3-68.5,98.4c-25,24.6-61.9,52.7-95.2,69
		c-33.4-16.3-70.2-44.4-95.2-69c-28.5-28.1-52.1-61.1-68.5-98.4c-0.9-2.1-1.7-4.1-2.6-6.2c-17.9,2-32,4.6-39.9,6.2l-0.3,0.2
		c20.7,54.4,52.6,97.3,85.5,129.8c59.6,58.7,121.1,84,121.1,84s61.5-25.3,121-84c32.4-31.9,63.7-73.9,84.5-127.1
		C811,406,796,402.8,775.1,400.2z"/>
	<path class="st4" d="M284.8,421.5l-1.6-12.5c0,0-39.2,11.2-67.1,21.6l5.1,11.9C221.2,442.5,244.7,433.2,284.8,421.5z"/>
	<path class="st4" d="M936.6,421.5l1.6-12.5c0,0,39.1,11.2,67.1,21.6l-5.1,11.9C1000.3,442.5,976.8,433.2,936.6,421.5z"/>
	<text transform="matrix(1 0 0 1 385.9833 684.6205)" class="st5 st6">BWW Apps</text>
	<text transform="matrix(1.702 0 0 1 222.6501 736.9371)" class="st7 st8">Helping you win at life</text>
</g>
</svg>
