<?xml version="1.0" encoding="utf-8"?>
<!-- Generator: Adobe Illustrator 23.0.1, SVG Export Plug-In . SVG Version: 6.00 Build 0)  -->
<svg version="1.1" xmlns="http://www.w3.org/2000/svg" xmlns:xlink="http://www.w3.org/1999/xlink" x="0px" y="0px"
	 viewBox="0 0 1217.73 614.23" style="enable-background:new 0 0 1217.73 614.23;" xml:space="preserve">
<style type="text/css">
	.st0{fill:#FFFFFF;}
	.st1{fill-rule:evenodd;clip-rule:evenodd;}
	.st2{fill:#004C83;}
	.st3{fill-rule:evenodd;clip-rule:evenodd;fill:#004C83;}
	.st4{fill-rule:evenodd;clip-rule:evenodd;fill:#FFFFFF;}
</style>
<g id="Guides_For_Artboard">
</g>
<g id="Layer_1">
	<rect x="-141.14" y="-290.97" class="st0" width="1500" height="1200"/>
	<g>
		<path class="st1" d="M275.66,348.01c22.38-6.71,56.63-14.04,73.77-17.57c-6.95-40.12-8.59-82.41-2.44-125.91l-45.77,16.82
			c1.04-46.87,6.86-87.44,13.32-118.95c-35.01,14.2-72.43,32.04-106.59,53.71c-3.28,40.81,1.32,88.25,13.1,138.43l36.71-13.12
			C261.4,302.47,267.35,324.9,275.66,348.01z"/>
		<path class="st1" d="M366.36,397.64c-21.82,3.99-47.18,9.63-62.68,13.17c37.87,70.78,98.14,142.12,184.56,195.84
			C448.21,562,395.98,487.75,366.36,397.64z"/>
	</g>
	<g>
		<path class="st1" d="M852.57,397.64C822.95,487.75,770.71,562,730.69,606.65c86.4-53.72,146.68-125.06,184.54-195.84
			C899.75,407.27,874.39,401.63,852.57,397.64z"/>
		<path class="st1" d="M1010.97,156.11c-34.14-21.67-71.57-39.51-106.59-53.71c6.47,31.51,12.29,72.08,13.33,118.95l-45.77-16.82
			c6.15,43.5,4.51,85.79-2.44,125.91c17.15,3.54,51.4,10.87,73.77,17.57c8.31-23.11,14.25-45.54,17.9-66.6l36.7,13.12
			C1009.66,244.36,1014.27,196.91,1010.97,156.11z"/>
	</g>
	<path class="st2" d="M959.04,566.03c28.38,10.86,77.22-47.87,109.1-131.17c31.87-83.3,34.68-159.63,6.29-170.49
		c-28.38-10.86-77.22,47.88-109.09,131.16C933.48,478.83,930.65,555.17,959.04,566.03z"/>
	<path class="st2" d="M1077.28,438.36c31.87-83.31,34.69-159.63,6.31-170.49l34.08,13.03l-0.01,0.04
		c27.34,12.23,24.21,87.75-7.28,170.08c-31.87,83.31-80.72,142.02-109.1,131.17l-33.08-12.67
		C996.58,580.38,1045.42,521.66,1077.28,438.36z"/>
	<path class="st2" d="M1118.82,454.25c20.93-54.73,29.33-106.44,24.57-138.56l18.08,6.92l-0.01,0.03
		c23.38,10.46,20.72,75.09-6.23,145.54c-27.27,71.29-69.07,121.54-93.36,112.26l-17.22-6.6
		C1069.63,553.08,1097.88,508.97,1118.82,454.25z"/>
	<path class="st2" d="M1164.68,471.79c15.26-39.9,22.73-77.93,22.09-105.31l15.46,5.91l-0.01,0.02
		c20.63,9.07,20.71,59.57-0.01,113.74c-20.97,54.81-55.29,92.61-76.65,84.43l-14.71-5.63
		C1129.61,544.99,1149.42,511.69,1164.68,471.79z"/>
	<path class="st2" d="M258.7,566.03c-28.38,10.86-77.23-47.87-109.1-131.17c-31.87-83.3-34.68-159.63-6.3-170.49
		c28.38-10.86,77.23,47.88,109.1,131.16C284.26,478.83,287.09,555.17,258.7,566.03z"/>
	<path class="st2" d="M140.45,438.36c-31.88-83.31-34.69-159.63-6.32-170.49l-34.07,13.03l0.01,0.04
		c-27.33,12.23-24.21,87.75,7.28,170.08c31.87,83.31,80.72,142.02,109.09,131.17l33.09-12.67
		C221.16,580.38,172.32,521.66,140.45,438.36z"/>
	<path class="st2" d="M98.92,454.25c-20.95-54.73-29.33-106.44-24.58-138.56l-18.07,6.92v0.03c-23.38,10.46-20.7,75.09,6.24,145.54
		c27.27,71.29,69.07,121.54,93.36,112.26l17.22-6.6C148.1,553.08,119.84,508.97,98.92,454.25z"/>
	<path class="st2" d="M53.05,471.79c-15.27-39.9-22.73-77.93-22.1-105.31l-15.45,5.91l0.01,0.02
		c-20.64,9.07-20.72,59.57,0.01,113.74c20.97,54.81,55.28,92.61,76.65,84.43l14.7-5.63C88.13,544.99,68.32,511.69,53.05,471.79z"/>
	<path class="st2" d="M424.01,329.35c-81.03,11.25-157.51,29.79-226.26,55.09l13.62,43.78c67.57-25.09,143.26-43.33,223.71-54.16
		C429.83,357.87,426.23,341.38,424.01,329.35z"/>
	<path class="st2" d="M794.12,329.09c-3.02,16.08-7.41,31.43-11.85,44.61c81.63,10.8,158.4,29.23,226.84,54.66l13.61-43.77
		C953.33,359.02,876.03,340.34,794.12,329.09z"/>
	<path class="st1" d="M571.47,125.59c-28.08,12.82-70.14,16.66-78.39,42.95c-12.61,40.18-23.16,160.44-23.16,160.44
		s31.85,4.55,31.85,37.59c0,33.03,12.53,88.55,55.19,118.19V329.92c0,0-55.74-32.34-56.73-58.59c-1-26.27-0.7-9.32-0.7-9.32
		l85.62,26.73c1.35,16.76,0.73,66.04-8.39,81.18l28.9,17.61l28.91-17.61c-9.13-15.15-9.75-64.42-8.4-81.18l85.62-26.73
		c0,0,0.3-16.95-0.69,9.32c-1,26.25-57.8,58.59-57.8,58.59v154.83c42.64-29.64,56.25-85.16,56.25-118.19
		c0-33.03,31.28-37.59,31.28-37.59s-9.99-120.26-22.59-160.44c-8.25-26.29-50.31-30.13-78.39-42.95
		c-1.48,16.92-2.28,48.47-2.37,65.21l-0.06,11.8h-11.83c-13.29,0-26.55,0-39.83,0h-11.85l-0.05-11.8
		C573.75,174.06,572.95,142.53,571.47,125.59L571.47,125.59z"/>
	<g>
		<path class="st3" d="M554.4,45.4c-72.88,3.94-136.45,17.18-153.34,40.23l-21.91,163.81c-1.94,44.34,3.13,84.14,12.95,119.67
			l35.63-20.53c-7.25-30.12-9.97-61.22-8.7-92.85l19.24-143.84c12.89-7.67,43.35-14.02,53.21-15.75
			c24.22-4.23,49.45-6.56,74.54-7.63C564.16,78.17,560.61,62.14,554.4,45.4z"/>
		<path class="st3" d="M838.73,249.44L816.82,85.63c-21.03-21.97-86.84-35.42-160.33-39.86c-5.3,12.69-9.96,27.25-11.84,42.18
			c-0.03,0.31-0.11,0.6-0.16,0.89c27.78,1.33,55.84,4.12,82.73,9.15c10.61,2,38.32,8.05,52.63,15.66l19.01,142.09
			c1.3,32.39-1.6,64.25-9.25,95.07l35.56,20.48C835.4,335.21,840.71,294.68,838.73,249.44z"/>
	</g>
	<path class="st1" d="M585.74,190.74c13.28,0,26.54,0,39.83,0c0,0,0.41-104.75,13.19-138.57c12.81-33.82,20.62-41.82,20.62-41.82
		c-5.03-1.56-10.77-2.83-16.97-3.84c-2.73,2.72-6.4,6.83-8.41,10.83l3.37-11.57c-4.22-0.54-8.61-0.99-13.11-1.31
		c-2.82,7.99-7.82,23.71-8.89,37.53c0,0,0.87-21.63,3.35-37.87c-8.22-0.39-16.68-0.39-25,0.03c3.81,10.89,8.46,29.09,8.12,52.38
		c0,0-2.75-30.67-15.16-51.97c-5.37,0.41-10.64,1-15.68,1.74c2.45,5.19,6.23,13.79,7.74,20.46c0,0-6.13-12.45-12-19.76
		c-5.29,0.91-10.28,2.02-14.83,3.34c0,0,7.82,8.01,20.62,41.82C585.35,85.99,585.74,190.74,585.74,190.74L585.74,190.74z"/>
	<path class="st1" d="M774.35,396.39c-0.55,1.29-1.07,2.59-1.63,3.88c-16.44,37.23-40.03,70.28-68.54,98.37
		c-25.01,24.64-61.85,52.68-95.23,69c-33.4-16.32-70.22-44.36-95.23-69c-28.51-28.09-52.11-61.14-68.55-98.37
		c-0.89-2.06-1.74-4.13-2.59-6.2c-17.88,1.97-31.96,4.56-39.87,6.18l-0.34,0.19c20.71,54.44,52.59,97.35,85.52,129.79
		c59.57,58.67,121.05,84,121.05,84s61.48-25.32,121.03-84c32.39-31.9,63.73-73.93,84.48-127.08
		C810.16,402.17,795.24,398.95,774.35,396.39z"/>
	<path class="st4" d="M284.01,417.72l-1.57-12.52c0,0-39.16,11.18-67.14,21.58l5.1,11.95C220.39,438.72,243.88,429.35,284.01,417.72
		z"/>
	<path class="st4" d="M935.83,417.72l1.58-12.52c0,0,39.15,11.18,67.13,21.58l-5.08,11.95
		C999.46,438.72,975.96,429.35,935.83,417.72z"/>
</g>
</svg>
